<!--?xml version="1.0" standalone="no"?-->
              <svg id="sw-js-blob-svg" viewBox="0 0 100 100" xmlns="http://www.w3.org/2000/svg" version="1.1">
                    <defs> 
                        <linearGradient id="sw-gradient" x1="0" x2="1" y1="1" y2="0">
                            <stop id="stop1" stop-color="rgba(103.961, 130.058, 233.058, 1)" offset="0%"></stop>
                            <stop id="stop2" stop-color="rgba(153.284, 237.798, 242.165, 1)" offset="100%"></stop>
                        </linearGradient>
                    </defs>
                <path fill="url(#sw-gradient)" d="M17.8,-20.7C22.4,-17.3,25,-11.1,25.9,-4.8C26.8,1.6,26,8.1,23.4,14.6C20.9,21.1,16.7,27.8,12.1,26.6C7.4,25.5,2.3,16.7,-6.4,14.7C-15.1,12.8,-27.3,17.8,-34,15.2C-40.6,12.7,-41.8,2.5,-37.1,-3.5C-32.4,-9.6,-21.9,-11.5,-14.7,-14.4C-7.6,-17.3,-3.8,-21.1,1.4,-22.8C6.6,-24.5,13.2,-24,17.8,-20.7Z" width="100%" height="100%" transform="translate(50 50)" stroke-width="0" style="transition: 0.3s;"></path>
              </svg>