<!--?xml version="1.0" standalone="no"?-->
              <svg id="sw-js-blob-svg" viewBox="0 0 100 100" xmlns="http://www.w3.org/2000/svg" version="1.1">
                    <defs> 
                        <linearGradient id="sw-gradient" x1="0" x2="1" y1="1" y2="0">
                            <stop id="stop1" stop-color="rgba(255, 229.986, 87.832, 1)" offset="0%"></stop>
                            <stop id="stop2" stop-color="rgba(211.186, 230.781, 101.773, 1)" offset="100%"></stop>
                        </linearGradient>
                    </defs>
                <path fill="url(#sw-gradient)" d="M8.6,-15.4C14.7,-11.3,25.8,-16.3,26.2,-15.3C26.5,-14.2,16.1,-7.1,13.4,-1.6C10.7,4,15.6,7.9,18.5,14.6C21.4,21.2,22.2,30.6,18.8,31.9C15.4,33.2,7.7,26.6,1.8,23.5C-4.2,20.5,-8.3,21.1,-13.5,20.7C-18.7,20.4,-24.9,19.2,-29.3,15.6C-33.6,12,-36.2,6,-37,-0.5C-37.9,-7,-37,-13.9,-33,-18.2C-29,-22.5,-21.9,-24.1,-15.9,-28.2C-9.9,-32.4,-4.9,-39.1,-1.9,-35.9C1.2,-32.7,2.4,-19.5,8.6,-15.4Z" width="100%" height="100%" transform="translate(50 50)" stroke-width="0" style="transition: 0.3s;"></path>
              </svg>