<!--?xml version="1.0" standalone="no"?-->
              <svg id="sw-js-blob-svg" viewBox="0 0 100 100" xmlns="http://www.w3.org/2000/svg" version="1.1">
                    <defs> 
                        <linearGradient id="sw-gradient" x1="0" x2="1" y1="1" y2="0">
                            <stop id="stop1" stop-color="rgba(133.907, 162.488, 255, 1)" offset="0%"></stop>
                            <stop id="stop2" stop-color="rgba(255, 178.687, 225.483, 1)" offset="100%"></stop>
                        </linearGradient>
                    </defs>
                <path fill="url(#sw-gradient)" d="M23,-25.3C29.5,-26.9,34.4,-19.8,36.2,-12.2C38,-4.6,36.8,3.5,31.7,7.5C26.5,11.6,17.5,11.6,11.6,12.4C5.6,13.1,2.8,14.6,1,13.2C-0.7,11.8,-1.4,7.4,-8.1,6.8C-14.7,6.3,-27.3,9.6,-31.3,7.7C-35.2,5.8,-30.6,-1.3,-27.8,-8.7C-25,-16.2,-24,-23.9,-19.6,-23C-15.3,-22.1,-7.7,-12.6,0.3,-12.9C8.2,-13.3,16.4,-23.6,23,-25.3Z" width="100%" height="100%" transform="translate(50 50)" stroke-width="0" style="transition: 0.3s;"></path>
              </svg>