<!--?xml version="1.0" standalone="no"?-->
              <svg id="sw-js-blob-svg" viewBox="0 0 100 100" xmlns="http://www.w3.org/2000/svg" version="1.1">
                    <defs> 
                        <linearGradient id="sw-gradient" x1="0" x2="1" y1="1" y2="0">
                            <stop id="stop1" stop-color="rgba(133.028, 248, 55, 1)" offset="0%"></stop>
                            <stop id="stop2" stop-color="rgba(99.495, 247.361, 255, 1)" offset="100%"></stop>
                        </linearGradient>
                    </defs>
                <path fill="url(#sw-gradient)" d="M18.7,-25.6C23.3,-22.4,25.4,-15.7,27.3,-9C29.3,-2.4,31.1,4.1,27.5,7.1C24,10,15.1,9.2,9.6,15.7C4.1,22.2,2.1,35.8,-0.2,36.1C-2.4,36.3,-4.9,23.2,-9,16.3C-13.2,9.4,-19,8.7,-20.2,6.3C-21.4,3.8,-17.9,-0.4,-14.7,-3C-11.4,-5.7,-8.5,-6.7,-6.1,-10.6C-3.7,-14.5,-1.9,-21.4,2.6,-25C7.1,-28.6,14.1,-28.9,18.7,-25.6Z" width="100%" height="100%" transform="translate(50 50)" stroke-width="0" style="transition: 0.3s;"></path>
              </svg>