<!--?xml version="1.0" standalone="no"?-->
              <svg id="sw-js-blob-svg" viewBox="0 0 100 100" xmlns="http://www.w3.org/2000/svg" version="1.1">
                    <defs> 
                        <linearGradient id="sw-gradient" x1="0" x2="1" y1="1" y2="0">
                            <stop id="stop1" stop-color="rgba(248, 117, 55, 1)" offset="0%"></stop>
                            <stop id="stop2" stop-color="rgba(251, 168, 31, 1)" offset="100%"></stop>
                        </linearGradient>
                    </defs>
                <path fill="url(#sw-gradient)" d="M9.9,-13.4C16.9,-10.9,29.6,-15.1,35.5,-13C41.4,-10.9,40.6,-2.6,36.6,3.3C32.7,9.1,25.5,12.5,19.2,12.5C12.8,12.6,7.3,9.3,2.5,12.4C-2.3,15.6,-6.3,25.3,-11.8,28.9C-17.4,32.5,-24.4,29.9,-30.9,25.2C-37.4,20.6,-43.3,13.8,-42,7.5C-40.6,1.1,-32.1,-4.8,-26.8,-10.5C-21.5,-16.1,-19.4,-21.5,-15.5,-25.5C-11.5,-29.5,-5.8,-32,-2.2,-28.6C1.4,-25.3,2.9,-16,9.9,-13.4Z" width="100%" height="100%" transform="translate(50 50)" stroke-width="0" style="transition: 0.3s;"></path>
              </svg>