<!--?xml version="1.0" standalone="no"?-->
              <svg id="sw-js-blob-svg" viewBox="0 0 100 100" xmlns="http://www.w3.org/2000/svg" version="1.1">
                    <defs> 
                        <linearGradient id="sw-gradient" x1="0" x2="1" y1="1" y2="0">
                            <stop id="stop1" stop-color="rgba(248.995, 115.289, 115.289, 1)" offset="0%"></stop>
                            <stop id="stop2" stop-color="rgba(227.214, 157.63, 251.272, 0.51)" offset="100%"></stop>
                        </linearGradient>
                    </defs>
                <path fill="url(#sw-gradient)" d="M20.9,-29.5C26.1,-29.2,28.7,-21.7,31.6,-14.6C34.5,-7.5,37.8,-0.8,34.8,3.5C31.8,7.7,22.5,9.6,16.2,10.5C9.9,11.5,6.7,11.7,2.6,16.1C-1.4,20.6,-6.3,29.4,-11.3,31.3C-16.3,33.1,-21.4,28,-24.2,22.3C-27.1,16.6,-27.8,10.4,-26.4,5.2C-25,0,-21.5,-4.1,-17.2,-5.6C-13,-7.1,-8.1,-6,-5.1,-7.3C-2.1,-8.5,-1.1,-12.1,3.4,-17.4C7.9,-22.7,15.7,-29.7,20.9,-29.5Z" width="100%" height="100%" transform="translate(50 50)" stroke-width="0" style="transition: 0.3s;"></path>
              </svg>